<svg xmlns="http://www.w3.org/2000/svg" xmlns:xlink="http://www.w3.org/1999/xlink" version="1.1" x="0px" y="0px" viewBox="0 0 100 125" enable-background="new 0 0 100 100" xml:space="preserve"><path d="M50,93.555c-5.879,0-11.583-1.152-16.953-3.424c-5.187-2.193-9.845-5.334-13.844-9.334  c-3.999-3.998-7.14-8.656-9.333-13.842C7.598,61.584,6.446,55.881,6.446,50c0-5.879,1.152-11.583,3.423-16.953  c2.193-5.187,5.334-9.845,9.333-13.844c4-3.999,8.657-7.14,13.844-9.333C38.417,7.598,44.121,6.446,50,6.446  c5.88,0,11.583,1.152,16.953,3.423c5.188,2.193,9.845,5.334,13.844,9.333c4,4,7.141,8.657,9.334,13.844  c2.271,5.37,3.423,11.074,3.423,16.953c0,5.881-1.151,11.584-3.423,16.955c-2.193,5.186-5.334,9.844-9.334,13.842  c-3.999,4-8.656,7.141-13.844,9.334C61.583,92.402,55.88,93.555,50,93.555z M50,8.853c-5.556,0-10.944,1.088-16.016,3.233  c-4.899,2.073-9.3,5.04-13.08,8.819s-6.746,8.18-8.819,13.08C9.94,39.056,8.853,44.444,8.853,50c0,5.555,1.088,10.945,3.233,16.016  c2.073,4.9,5.04,9.301,8.819,13.08s8.18,6.748,13.08,8.818c5.072,2.146,10.46,3.234,16.016,3.234s10.944-1.088,16.016-3.234  c4.9-2.07,9.301-5.039,13.08-8.818s6.746-8.18,8.818-13.08c2.146-5.07,3.233-10.461,3.233-16.016c0-5.556-1.088-10.944-3.233-16.016  c-2.072-4.9-5.039-9.3-8.818-13.08s-8.18-6.746-13.08-8.819C60.944,9.94,55.556,8.853,50,8.853z"/><path d="M50,61.311c-6.236,0-11.31-5.074-11.31-11.311c0-6.236,5.074-11.31,11.31-11.31c6.236,0,11.31,5.074,11.31,11.31  C61.31,56.236,56.236,61.311,50,61.311z M50,41.097c-4.909,0-8.903,3.994-8.903,8.903c0,4.91,3.994,8.904,8.903,8.904  S58.903,54.91,58.903,50C58.903,45.091,54.909,41.097,50,41.097z"/><path d="M50,11.74c-21.13,0-38.26,17.13-38.26,38.26c0,21.131,17.13,38.26,38.26,38.26c21.13,0,38.26-17.129,38.26-38.26  C88.26,28.87,71.13,11.74,50,11.74z M79.934,34.194c1.707,3.23,2.872,6.696,3.461,10.301l-8.938,1.461  c-0.315-1.922-0.855-3.796-1.62-5.604c-0.277-0.657-0.584-1.298-0.914-1.925L79.934,34.194z M72.378,50  c0,2.441-0.389,4.824-1.136,7.076l-2.662-0.887c0.664-1.99,1.001-4.078,1.001-6.204v-0.047l2.797-0.004  C72.378,49.956,72.378,49.978,72.378,50z M65.51,66.131l-1.944-2.025c1.527-1.467,2.8-3.156,3.78-5.023l2.486,1.307  c-1.039,1.979-2.383,3.811-4.008,5.436C65.721,65.928,65.615,66.029,65.51,66.131z M27.622,50c0-0.604,0.025-1.203,0.072-1.797  l2.787,0.219c-0.041,0.516-0.062,1.042-0.062,1.563c0,1.597,0.191,3.181,0.568,4.71l-2.721,0.672  C27.841,53.631,27.622,51.832,27.622,50z M61.091,33.845l1.581-2.295c1.117,0.77,2.172,1.646,3.152,2.626  c0.738,0.739,1.417,1.521,2.038,2.339l-2.226,1.682C64.36,36.508,62.831,35.044,61.091,33.845z M64.919,50  c0,8.24-6.68,14.918-14.919,14.918S35.081,58.24,35.081,50c0-8.239,6.68-14.919,14.919-14.919S64.919,41.761,64.919,50z   M58.361,32.272c-1.902-0.9-3.93-1.482-6.025-1.73l0.328-2.763c2.407,0.284,4.729,0.951,6.891,1.973L58.361,32.272z M49.175,30.421  c-2.116,0.087-4.185,0.51-6.147,1.259l-0.993-2.605c2.225-0.846,4.59-1.333,7.025-1.433L49.175,30.421z M40.191,33.034  c-1.826,1.059-3.462,2.4-4.865,3.986l-2.087-1.846c0.301-0.34,0.613-0.673,0.937-0.998c1.398-1.398,2.95-2.587,4.615-3.554  L40.191,33.034z M33.431,39.543c-1.128,1.785-1.954,3.727-2.453,5.77l-2.715-0.664c0.571-2.339,1.516-4.563,2.807-6.599  L33.431,39.543z M31.984,57.674c0.828,1.936,1.959,3.721,3.365,5.305l-2.099,1.863c-1.619-1.824-2.911-3.869-3.848-6.062  L31.984,57.674z M37.628,65.164c1.64,1.338,3.469,2.396,5.437,3.141l-0.997,2.633c-2.239-0.848-4.335-2.057-6.217-3.596  L37.628,65.164z M46.085,69.178c1.278,0.258,2.595,0.389,3.915,0.389c0.795,0,1.596-0.047,2.377-0.141l0.337,2.791  c-0.894,0.107-1.8,0.162-2.714,0.162c-1.52,0-3.017-0.15-4.473-0.445L46.085,69.178z M55.459,68.797  c2.02-0.584,3.925-1.49,5.664-2.693l1.6,2.312c-1.988,1.379-4.172,2.418-6.481,3.084L55.459,68.797z M69.323,46.794  c-0.34-2.078-1.011-4.077-1.995-5.939l2.471-1.306c1.122,2.119,1.893,4.409,2.283,6.795L69.323,46.794z M77.013,29.602l-7.23,5.462  c-0.688-0.909-1.441-1.774-2.257-2.59c-1.08-1.081-2.248-2.049-3.489-2.904l5.144-7.465C72.18,24.171,74.815,26.694,77.013,29.602z   M64.459,19.385l-3.879,8.198c-0.307-0.146-0.617-0.286-0.933-0.419c-2.15-0.909-4.395-1.502-6.7-1.774l1.066-9.006  C57.645,16.813,61.159,17.823,64.459,19.385z M48.588,16.176l0.373,9.062c-2.68,0.11-5.289,0.645-7.781,1.595l-3.23-8.475  C41.353,17.061,44.931,16.327,48.588,16.176z M33.034,20.703l4.551,7.841c-1.859,1.077-3.571,2.392-5.11,3.931  c-0.359,0.359-0.704,0.729-1.039,1.106l-6.79-6.005C27.063,24.842,29.885,22.53,33.034,20.703z M21.379,31.926l7.66,4.841  c-0.719,1.137-1.347,2.333-1.875,3.584c-0.514,1.214-0.925,2.458-1.236,3.727l-8.798-2.151  C17.995,38.383,19.425,35.018,21.379,31.926z M16.162,49.985c0-0.893,0.036-1.794,0.105-2.681l9.027,0.71  c-0.051,0.658-0.079,1.319-0.079,1.986c0,2.025,0.241,4.012,0.717,5.941l-8.788,2.168C16.493,55.463,16.162,52.73,16.162,49.985z   M18.875,63.281l8.321-3.559c1.052,2.465,2.48,4.717,4.256,6.715l-6.765,6.006C22.262,69.711,20.306,66.629,18.875,63.281z   M28.611,76.207l5.719-7.002c1.823,1.49,3.84,2.709,6.022,3.631c0.287,0.121,0.575,0.236,0.865,0.346l-3.204,8.455  C34.606,80.348,31.443,78.521,28.611,76.207z M50,83.824c-2.268,0-4.537-0.227-6.744-0.674l1.794-8.859  c1.617,0.328,3.271,0.494,4.95,0.494c1.01,0,2.012-0.061,3.002-0.18l1.082,8.975C52.737,83.742,51.364,83.824,50,83.824z   M59.424,82.492l-2.515-8.684c0.928-0.27,1.842-0.592,2.738-0.973c1.569-0.664,3.054-1.48,4.443-2.441l5.144,7.436  C66.227,79.91,62.927,81.479,59.424,82.492z M73.444,74.387l-6.267-6.521c0.116-0.113,0.233-0.225,0.348-0.34  c1.787-1.787,3.271-3.807,4.432-6.02l8.009,4.211C78.271,68.939,76.076,71.857,73.444,74.387z M73.52,57.836  c0.84-2.516,1.266-5.143,1.266-7.836c0-0.023-0.001-0.046-0.001-0.069l9.054-0.014v0.068c0,3.663-0.583,7.267-1.733,10.716  L73.52,57.836z"/><text x="0" y="115" fill="#000000" font-size="5px" font-weight="bold" font-family="'Helvetica Neue', Helvetica, Arial-Unicode, Arial, Sans-serif">Created by Stephen Plaster</text><text x="0" y="120" fill="#000000" font-size="5px" font-weight="bold" font-family="'Helvetica Neue', Helvetica, Arial-Unicode, Arial, Sans-serif">from the Noun Project</text></svg>